<svg xmlns="http://www.w3.org/2000/svg" xmlns:xlink="http://www.w3.org/1999/xlink" viewBox="0 0 350 350"><defs><style>.cls-1{isolation:isolate;}.cls-2{fill:url(#linear-gradient);}.cls-3{fill:url(#linear-gradient-2);}.cls-4{fill:url(#linear-gradient-3);}.cls-5{fill:url(#linear-gradient-4);}.cls-6{mix-blend-mode:color-dodge;fill:url(#radial-gradient);}.cls-7{fill:#1a1a1a;}.cls-8{fill:url(#linear-gradient-5);}.cls-9{fill:url(#linear-gradient-6);}.cls-10{fill:#f2f2f2;mix-blend-mode:multiply;}.cls-11{fill:url(#linear-gradient-7);}.cls-12{fill:url(#linear-gradient-8);}.cls-13{fill:url(#linear-gradient-9);}.cls-14{fill:url(#radial-gradient-2);}.cls-15{fill:url(#radial-gradient-3);}.cls-16{fill:url(#linear-gradient-10);}.cls-17{fill:url(#linear-gradient-11);}.cls-18{fill:url(#linear-gradient-12);}.cls-19{fill:url(#linear-gradient-13);}.cls-20{fill:#e1e1e1;}.cls-21{fill:url(#linear-gradient-14);}.cls-22{fill:url(#linear-gradient-15);}</style><linearGradient id="linear-gradient" x1="175" y1="350" x2="175" gradientUnits="userSpaceOnUse"><stop offset="0" stop-color="gray"/><stop offset="0.09" stop-color="#ccc"/><stop offset="0.88" stop-color="#e6e6e6"/><stop offset="1" stop-color="#f2f2f2"/></linearGradient><linearGradient id="linear-gradient-2" x1="175" y1="341.28" x2="175" y2="189.59" gradientUnits="userSpaceOnUse"><stop offset="0" stop-color="#ccc"/><stop offset="1" stop-color="#dcdcdc"/></linearGradient><linearGradient id="linear-gradient-3" x1="175" y1="238.55" x2="175" y2="0.75" gradientUnits="userSpaceOnUse"><stop offset="0" stop-color="#ededed"/><stop offset="1" stop-color="#d1d1d1"/></linearGradient><linearGradient id="linear-gradient-4" x1="175" y1="341" x2="175" y2="9" gradientUnits="userSpaceOnUse"><stop offset="0" stop-color="#b3b3b3"/><stop offset="1" stop-color="#fff"/></linearGradient><radialGradient id="radial-gradient" cx="286.66" cy="218.59" r="120.27" gradientUnits="userSpaceOnUse"><stop offset="0" stop-color="#1a1a1a"/><stop offset="0.1" stop-color="#161616"/><stop offset="0.61" stop-color="#060606"/><stop offset="1"/></radialGradient><linearGradient id="linear-gradient-5" x1="112.16" y1="175" x2="115.93" y2="175" gradientUnits="userSpaceOnUse"><stop offset="0" stop-color="#9b9b9b"/><stop offset="1" stop-color="#3c3c3c"/></linearGradient><linearGradient id="linear-gradient-6" x1="143.58" y1="63.84" x2="143.58" y2="57.79" gradientUnits="userSpaceOnUse"><stop offset="0" stop-color="#1b1b1b"/><stop offset="1" stop-color="#777"/></linearGradient><linearGradient id="linear-gradient-7" x1="-1024.55" y1="175" x2="-1020.78" y2="175" gradientTransform="matrix(-1, 0, 0, 1, -786.71, 0)" xlink:href="#linear-gradient-5"/><linearGradient id="linear-gradient-8" x1="-993.13" y1="63.84" x2="-993.13" y2="57.79" gradientTransform="matrix(-1, 0, 0, 1, -786.71, 0)" xlink:href="#linear-gradient-6"/><linearGradient id="linear-gradient-9" x1="175" y1="286.44" x2="175" y2="292.11" gradientUnits="userSpaceOnUse"><stop offset="0" stop-color="#616161"/><stop offset="1" stop-color="#9b9b9b"/></linearGradient><radialGradient id="radial-gradient-2" cx="847.17" cy="127.69" r="728.63" gradientUnits="userSpaceOnUse"><stop offset="0.97" stop-color="#c9c9c9"/><stop offset="0.99" stop-color="#929292"/><stop offset="1" stop-color="#616161"/></radialGradient><radialGradient id="radial-gradient-3" cx="-289.54" cy="127.69" r="728.63" gradientTransform="matrix(-1, 0, 0, 1, -786.71, 0)" xlink:href="#radial-gradient-2"/><linearGradient id="linear-gradient-10" x1="175" y1="286.46" x2="175" y2="13.94" gradientUnits="userSpaceOnUse"><stop offset="0" stop-color="#404040"/><stop offset="0.03" stop-color="#959595"/><stop offset="0.11" stop-color="#b1b1b1"/><stop offset="0.19" stop-color="#c9c9c9"/><stop offset="0.25" stop-color="#d2d2d2"/><stop offset="0.3" stop-color="#c9c9c9"/><stop offset="0.37" stop-color="#b2b2b2"/><stop offset="0.39" stop-color="#d2d2d2"/><stop offset="0.41" stop-color="silver"/><stop offset="0.5" stop-color="silver"/><stop offset="0.51" stop-color="#b8b8b8"/><stop offset="0.88" stop-color="#e2e2e2"/><stop offset="1" stop-color="#fff"/></linearGradient><linearGradient id="linear-gradient-11" x1="132.05" y1="177.88" x2="132.05" y2="14.33" gradientUnits="userSpaceOnUse"><stop offset="0" stop-color="#ccc"/><stop offset="1" stop-color="#fff"/></linearGradient><linearGradient id="linear-gradient-12" x1="-1004.66" y1="177.88" x2="-1004.66" y2="14.33" gradientTransform="matrix(-1, 0, 0, 1, -786.71, 0)" xlink:href="#linear-gradient-11"/><linearGradient id="linear-gradient-13" x1="175" y1="295.38" x2="175" y2="56.59" gradientUnits="userSpaceOnUse"><stop offset="0" stop-color="#fff"/><stop offset="1" stop-color="#ededed"/></linearGradient><linearGradient id="linear-gradient-14" x1="158.87" y1="212.17" x2="158.87" y2="249.27" gradientUnits="userSpaceOnUse"><stop offset="0" stop-color="#999"/><stop offset="1" stop-color="#4d4d4d"/></linearGradient><linearGradient id="linear-gradient-15" x1="194.06" y1="212.17" x2="194.06" y2="249.27" xlink:href="#linear-gradient-14"/></defs><title>on</title><g class="cls-1"><g id="on_off"><path class="cls-2" d="M350,297.52c0,29-23.83,52.48-53.22,52.48H53.22C23.83,350,0,326.51,0,297.52v-245C0,23.5,23.83,0,53.22,0H296.78C326.17,0,350,23.5,350,52.48Z"/><path class="cls-3" d="M53.22,339.93c-23.79,0-43.15-19-43.15-42.41v-245c0-23.38,19.36-42.41,43.15-42.41H296.78c23.79,0,43.15,19,43.15,42.41v245c0,23.39-19.36,42.41-43.15,42.41Z"/><path class="cls-4" d="M296.78,10.07H53.22c-23.79,0-43.15,19-43.15,42.41v147A408.07,408.07,0,0,0,175,234a408.07,408.07,0,0,0,164.93-34.58v-147C339.93,29.1,320.57,10.07,296.78,10.07Z"/><path class="cls-5" d="M296.78,341H53.22C28.84,341,9,321.5,9,297.52v-245C9,28.51,28.84,9,53.22,9H296.78C321.16,9,341,28.51,341,52.48v245C341,321.5,321.16,341,296.78,341ZM53.22,11.14c-23.2,0-42.08,18.55-42.08,41.34v245c0,22.8,18.88,41.34,42.08,41.34H296.78c23.2,0,42.08-18.54,42.08-41.34v-245c0-22.79-18.88-41.34-42.08-41.34Z"/><path class="cls-6" d="M339.93,297.52V110.74a120.25,120.25,0,1,0-23,224.29A42.36,42.36,0,0,0,339.93,297.52Z"/><rect class="cls-7" x="115.93" y="63.84" width="59.06" height="222.62"/><polygon class="cls-8" points="115.93 286.46 112.16 292.21 112.16 57.8 115.93 63.84 115.93 286.46"/><polygon class="cls-9" points="175 57.8 112.16 57.8 115.93 63.84 175 63.84 175 57.8"/><path class="cls-10" d="M124.3,180.4c1.38.69,5.34,5.86,6.2,7.41s7.24,2.59,10,2.59H175v-7.24s-8-.44-17.27-.52C136,182.47,124.3,180.4,124.3,180.4Z"/><rect class="cls-7" x="175" y="63.84" width="59.06" height="222.62"/><polygon class="cls-11" points="234.06 286.46 237.84 292.21 237.84 57.8 234.06 63.84 234.06 286.46"/><polygon class="cls-12" points="175 57.8 237.84 57.8 234.06 63.84 175 63.84 175 57.8"/><polygon class="cls-13" points="234.06 286.46 175 286.46 115.93 286.46 112.16 292.21 175 292.21 237.84 292.21 234.06 286.46"/><path class="cls-14" d="M123.31,66.23c2-.69,3.81-1.92,5.25-8.84s7.66-41.94,14.57-42.7,6.72,16,4.43,32.2-11.84,48-14.95,67.55-12.44,79.35-12.55,64.31c-.08-9.88-.72-46.53-.08-74.59.41-17.93,1.44-31.19,1.42-33.4C121.36,67.94,121.76,66.74,123.31,66.23Z"/><path class="cls-15" d="M226.69,66.23c-2.05-.69-3.82-1.92-5.25-8.84s-7.67-41.94-14.57-42.7-6.72,16-4.43,32.2,11.84,48,14.94,67.55,12.44,79.35,12.56,64.31c.07-9.88.71-46.53.07-74.59-.41-17.93-1.44-31.19-1.41-33.4C228.64,67.94,228.23,66.74,226.69,66.23Z"/><path class="cls-16" d="M229.87,177.88C227.24,159.45,213,59.51,212.24,54.75s-1.85-11-1.59-17a99.46,99.46,0,0,0-.52-17.66c-.43-2.71-1.76-6.11-6.68-6.11h-56.9c-4.93,0-6.25,3.4-6.69,6.11a98.79,98.79,0,0,0-.51,17.66c.25,6-.86,12.28-1.59,17s-15,104.7-17.63,123.13c-.21,1.48-.49,35,1.5,63.34A353.61,353.61,0,0,0,127,281c.89,5.57,2.6,5.43,12.73,5.43h70.51c10.13,0,11.85.14,12.73-5.43a351.09,351.09,0,0,0,5.38-39.81C230.35,212.85,230.08,179.36,229.87,177.88Z"/><path class="cls-10" d="M192.26,182.64c-9.3.08-17.26.52-17.26.52s-8-.44-17.27-.52c-21.71-.17-33.43-2.24-33.43-2.24,1.38.69,5.34,5.86,6.2,7.41s7.24,2.59,10,2.59h69c2.75,0,9.13-1,10-2.59s4.83-6.72,6.21-7.41C225.7,180.4,214,182.47,192.26,182.64Z"/><path class="cls-17" d="M120.13,177.88s.63-12,1.27-16.47c5-35,15.53-108.31,15.53-108.31.7-4.46,2-10,1.79-15.37-.16-4,.07-8.48.29-12.9.26-5.42,1.68-9.71,5-10.5-3.09,1.45-3.28,4.36-3.55,6.47-.64,5.1-.22,11.29,0,16.87A81,81,0,0,1,139,53.44s-5.79,40.11-15.5,108.1C123,165.35,120.13,177.88,120.13,177.88Z"/><path class="cls-18" d="M229.87,177.88s-.64-12-1.27-16.47c-5-35-15.53-108.31-15.53-108.31-.7-4.46-2-10-1.8-15.37.17-4-.07-8.48-.28-12.9-.27-5.42-1.68-9.71-5-10.5,3.09,1.45,3.28,4.36,3.55,6.47.65,5.1.23,11.29,0,16.87A81.79,81.79,0,0,0,211,53.44s5.8,40.11,15.5,108.1C227,165.35,229.87,177.88,229.87,177.88Z"/><path class="cls-19" d="M237.84,57.08H221.38c0,.1,0,.22.06.31.08.39.16.76.25,1.12h15.44v233H112.87v-233h15.44c.08-.36.17-.73.25-1.12,0-.09,0-.21.06-.31H112.16a.71.71,0,0,0-.72.71V292.21a.71.71,0,0,0,.72.71H237.84a.71.71,0,0,0,.71-.71V57.79A.71.71,0,0,0,237.84,57.08Z"/><path class="cls-20" d="M141.84,233.2a18.85,18.85,0,0,1,1.76-8.49,17,17,0,0,1,3.42-4.59,14.88,14.88,0,0,1,4.56-3.08,19.28,19.28,0,0,1,7.34-1.44c5-.07,8.87,1.46,11.85,4.54s4.52,7.4,4.52,12.91-1.52,9.74-4.48,12.82-6.86,4.6-11.8,4.53a17.29,17.29,0,0,1-12.25-4.73A16.71,16.71,0,0,1,141.84,233.2ZM149,233c0,3.77,1,6.64,2.84,8.61a9.23,9.23,0,0,0,6.91,3,8.45,8.45,0,0,0,6.71-2.89c1.75-1.95,2.61-4.89,2.61-8.81s-.84-6.77-2.54-8.67a8.48,8.48,0,0,0-6.78-2.81,9.28,9.28,0,0,0-7,2.93C150,226.27,149,229.14,149,233Z"/><path class="cls-20" d="M180.66,249.92a6.76,6.76,0,0,1-.1-1.35c.16-10.84.27-21.65.1-32.49l6.62,0c4.86,7.56,9.83,15.08,14.34,22.46q.27-11.13-.54-22.25c2.1,0,3.62-1.26,5.73-1.21a146.18,146.18,0,0,1,.59,34.39c-2.28.06-4.55.11-6.83.15-4-7.15-8.33-14-13-21.32.07,7.33-.32,14.19-.57,21.52Z"/><path class="cls-21" d="M142.44,231.85a19.27,19.27,0,0,1,1.73-8.49,16.8,16.8,0,0,1,3.36-4.59,14.56,14.56,0,0,1,4.48-3.08,18.45,18.45,0,0,1,7.2-1.44c4.87-.07,8.71,1.45,11.64,4.54s4.44,7.39,4.44,12.91-1.5,9.74-4.41,12.82-6.73,4.6-11.58,4.53a16.77,16.77,0,0,1-12-4.74C144.17,241.25,142.45,237.11,142.44,231.85Zm7.05-.22c0,3.77,1,6.64,2.79,8.61a9,9,0,0,0,6.78,3,8.22,8.22,0,0,0,6.59-2.89c1.72-1.95,2.57-4.89,2.57-8.82s-.83-6.76-2.5-8.66a8.26,8.26,0,0,0-6.66-2.81,9,9,0,0,0-6.84,2.93C150.44,224.92,149.49,227.79,149.49,231.63Z"/><path class="cls-22" d="M180.56,248.57q.25-16.92,0-33.84l6.5.05c4.77,7.55,9.64,15.08,14.07,22.46q.27-11.13-.53-22.25l6.21.14a184.15,184.15,0,0,1,0,33l-6.7.15c-3.94-7.16-8.48-14.45-13.09-21.8q.1,11-.25,22Z"/></g></g></svg>